<svg xmlns="http://www.w3.org/2000/svg" width="151" height="35" viewBox="0 0 151 35" fill="none">
<path d="M141.253 10.5796C141.385 10.0972 141.551 9.68362 141.782 9.30454C142.013 8.92546 142.311 8.61531 142.674 8.40854C143.037 8.16731 143.467 8.06392 143.963 8.06392C144.458 8.06392 144.888 8.16731 145.251 8.40854C145.615 8.61531 145.912 8.92546 146.176 9.27008C146.407 9.64916 146.606 10.0627 146.705 10.5452C146.837 11.0276 146.903 11.5101 146.903 12.027C146.903 12.5439 146.837 13.0264 146.738 13.5088C146.606 13.9913 146.441 14.4393 146.209 14.8184C145.978 15.1975 145.681 15.5076 145.317 15.7488C144.954 15.9901 144.524 16.0935 143.996 16.0935C143.5 16.0935 143.07 15.9901 142.707 15.7488C142.344 15.5076 142.013 15.2319 141.782 14.8528C141.551 14.4738 141.352 14.0602 141.253 13.5778C141.121 13.0953 141.088 12.6128 141.088 12.0959C141.088 11.5445 141.121 11.0621 141.253 10.5796ZM146.804 19.1261C147.663 18.7125 148.39 18.1267 149.018 17.4375C149.645 16.7482 150.108 15.9212 150.471 14.9907C150.835 14.0602 151 13.0953 151 12.0959C151 11.131 150.835 10.1661 150.504 9.23562C150.174 8.30516 149.711 7.47808 149.084 6.75439C148.489 6.03069 147.762 5.44485 146.903 4.99685C146.044 4.54885 145.086 4.34208 144.062 4.34208C143.037 4.34208 142.079 4.54885 141.253 4.96239C140.394 5.37592 139.667 5.96177 139.04 6.651C138.412 7.37469 137.916 8.16731 137.586 9.09777C137.222 10.0282 137.057 10.9932 137.057 11.9925C137.057 12.9919 137.222 13.9224 137.553 14.8528C137.883 15.7833 138.346 16.6104 138.973 17.3341C139.568 18.0578 140.328 18.6436 141.187 19.0916C142.046 19.5396 143.004 19.7464 144.029 19.7464C144.987 19.7808 145.945 19.5741 146.804 19.1261ZM135.207 4.44546H131.209V19.643H135.207V4.44546ZM128.731 15.7144H125.559V19.643H128.731V15.7144ZM118.291 13.8879H115.647L117.002 8.78762L118.291 13.8879ZM114.194 19.643L115.053 16.6793H118.918L119.81 19.643H124.039L118.621 4.44546H115.383L109.931 19.643H114.194ZM108.94 4.44546H104.942V19.643H108.94V4.44546ZM93.4446 10.5796C93.5767 10.0972 93.7419 9.68362 93.9732 9.30454C94.2045 8.92546 94.5019 8.61531 94.8653 8.40854C95.2287 8.16731 95.6583 8.06392 96.1539 8.06392C96.6495 8.06392 97.079 8.16731 97.4424 8.40854C97.8058 8.61531 98.1032 8.92546 98.3675 9.27008C98.5988 9.64916 98.797 10.0627 98.8962 10.5452C99.0283 11.0276 99.0944 11.5101 99.0944 12.027C99.0944 12.5439 99.0283 13.0264 98.9292 13.5088C98.797 13.9913 98.6318 14.4393 98.4006 14.8184C98.1693 15.1975 97.8719 15.5076 97.5085 15.7488C97.1451 15.9901 96.7155 16.0935 96.1869 16.0935C95.6913 16.0935 95.2618 15.9901 94.8983 15.7488C94.5349 15.5076 94.2375 15.2319 93.9732 14.8528C93.7419 14.4738 93.5437 14.0602 93.4446 13.5778C93.3124 13.0953 93.2794 12.6128 93.2794 12.0959C93.2794 11.5445 93.3124 11.0621 93.4446 10.5796ZM98.9953 19.1261C99.8543 18.7125 100.581 18.1267 101.209 17.4375C101.837 16.7482 102.299 15.9212 102.663 14.9907C103.026 14.0602 103.191 13.0953 103.191 12.0959C103.191 11.131 103.026 10.1661 102.696 9.23562C102.365 8.30516 101.903 7.47808 101.275 6.75439C100.647 6.03069 99.9204 5.44485 99.0614 4.99685C98.2023 4.54885 97.2442 4.34208 96.2199 4.34208C95.1957 4.34208 94.2375 4.54885 93.4116 4.96239C92.5525 5.37592 91.8256 5.96177 91.1979 6.651C90.5701 7.37469 90.0745 8.16731 89.7441 9.09777C89.3807 10.0282 89.2155 10.9932 89.2155 11.9925C89.2155 12.9919 89.3807 13.9224 89.7111 14.8528C90.0415 15.7833 90.504 16.6104 91.1318 17.3341C91.7265 18.0578 92.4864 18.6436 93.3124 19.0916C94.1715 19.5396 95.1296 19.7464 96.1539 19.7464C97.1781 19.7808 98.1362 19.5741 98.9953 19.1261ZM80.493 19.643V15.1285L81.7815 13.5778L85.6141 19.643H89.8102L84.1274 11.2344L89.4137 4.411H85.3168L80.4599 10.6141V4.411H76.4951V19.6085H80.493V19.643ZM67.9709 15.9901V13.5778H73.2572V10.2005H67.9709V8.06392H74.1824V4.44546H63.9731V19.643H74.3806V15.9901H67.9709ZM61.7594 5.96177C61.429 5.78946 61.0655 5.61716 60.636 5.41039C60.2395 5.20362 59.777 5.03131 59.3144 4.859C58.8519 4.68669 58.3563 4.54885 57.8607 4.44546C57.332 4.37654 56.8364 4.30762 56.2748 4.30762C55.5479 4.30762 54.8541 4.411 54.2263 4.65223C53.5655 4.859 53.0038 5.20362 52.4752 5.61716C51.9796 6.03069 51.5831 6.58208 51.2857 7.23685C50.9884 7.89162 50.8562 8.61531 50.8562 9.47685C50.8562 10.0282 50.9223 10.5107 51.0875 10.9587C51.2197 11.3722 51.4509 11.7858 51.7483 12.0959C52.0457 12.4405 52.4421 12.7162 52.9047 12.9919C53.3673 13.2676 53.9289 13.5088 54.5567 13.7156C54.9862 13.8879 55.4157 13.9913 55.8122 14.1292C56.2087 14.2325 56.5391 14.3704 56.8364 14.4738C57.1338 14.5772 57.3651 14.715 57.5303 14.8528C57.6955 14.9907 57.7946 15.1975 57.7946 15.4042C57.7946 15.611 57.6955 15.7488 57.5303 15.8867C57.3651 16.0245 57.0677 16.059 56.6052 16.059C56.0435 16.059 55.4488 15.9901 54.9201 15.8178C54.3585 15.6455 53.8629 15.4387 53.4333 15.2319C52.9047 14.9907 52.4091 14.715 51.9465 14.4048L50.1954 18.0578C50.625 18.3335 51.1206 18.5747 51.6161 18.7815C52.1448 18.9882 52.6734 19.195 53.2021 19.3328C53.7307 19.4707 54.3254 19.6085 54.8871 19.7119C55.4488 19.8153 56.0104 19.8498 56.5391 19.8498C57.1999 19.8498 57.8607 19.7808 58.5545 19.6085C59.2153 19.4362 59.81 19.1605 60.3387 18.8159C60.8673 18.4368 61.2968 17.9544 61.6272 17.3341C61.9576 16.7138 62.1228 15.9556 62.1228 15.0252C62.1228 14.3015 62.0237 13.7156 61.8255 13.1987C61.5942 12.6818 61.2968 12.2338 60.9003 11.8892C60.5039 11.5445 60.0413 11.2344 59.5127 10.9932C58.984 10.7519 58.3563 10.5107 57.6955 10.3039C57.266 10.1661 56.9025 10.0282 56.5721 9.92485C56.2417 9.82146 55.9444 9.71808 55.7131 9.61469C55.4818 9.51131 55.3166 9.37346 55.1845 9.27008C55.0523 9.13223 54.9862 8.95993 54.9862 8.75316C54.9862 8.47746 55.0853 8.30516 55.3166 8.16731C55.5148 8.06392 55.8122 7.995 56.1756 7.995C56.6052 7.995 57.0677 8.06392 57.5303 8.23623C57.9928 8.37408 58.3893 8.54639 58.7858 8.71869C59.2153 8.92546 59.6448 9.13223 60.0743 9.40792L61.7594 5.96177Z" fill="black"/>
<g clip-path="url(#clip0)">
<path d="M7.83125 6.3418H5.80862V18.2322H7.83125V6.3418Z" fill="#1E2A3E"/>
<path d="M2.02262 2.06101H11.8245H13.8472H33.5548V22.1426H13.8472H11.8245H2.02262V2.06101ZM0 24.2565H35.6292V0H0V24.2565Z" fill="#1E2A3E"/>
<path d="M23.7529 6.34128C26.9684 6.34128 29.5615 8.9836 29.5615 12.2601C29.5615 15.5366 26.9684 18.1789 23.7529 18.1789C20.5375 18.1789 17.9444 15.5366 17.9444 12.2601C17.9444 8.9836 20.5375 6.34128 23.7529 6.34128ZM23.7529 20.2927C28.1093 20.2927 31.6359 16.6992 31.6359 12.2601C31.6359 7.82098 28.1093 4.28027 23.7529 4.28027C19.3965 4.28027 15.8699 7.87383 15.8699 12.3129C15.8699 16.752 19.3965 20.2927 23.7529 20.2927Z" fill="#1E2A3E"/>
</g>
<defs>
<clipPath id="clip0">
<rect width="35.6811" height="34.8257" fill="white"/>
</clipPath>
</defs>
</svg>